HIERARCHY
ROOT Hips
{
	OFFSET -0.001795 -0.223333 0.028219
	CHANNELS 6 Xposition Yposition Zposition Zrotation Yrotation Xrotation 
	JOINT LeftUpLeg
	{
		OFFSET 0.069520 -0.091406 -0.006815
		CHANNELS 3 Zrotation Yrotation Xrotation
		JOINT LeftLeg
		{
			OFFSET 0.034277 -0.375199 -0.004496
			CHANNELS 3 Zrotation Yrotation Xrotation
			JOINT LeftFoot
			{
				OFFSET -0.013596 -0.397961 -0.043693
				CHANNELS 3 Zrotation Yrotation Xrotation
				JOINT LeftToe
				{
					OFFSET 0.026358 -0.055791 0.119288
					CHANNELS 3 Zrotation Yrotation Xrotation
					End Site
					{
						OFFSET 0.000000 0.000000 0.000000
					}
				}
			}
		}
	}
	JOINT RightUpLeg
	{
		OFFSET -0.067670 -0.090522 -0.004320
		CHANNELS 3 Zrotation Yrotation Xrotation
		JOINT RightLeg
		{
			OFFSET -0.038290 -0.382569 -0.008850
			CHANNELS 3 Zrotation Yrotation Xrotation
			JOINT RightFoot
			{
				OFFSET 0.015774 -0.398415 -0.042312
				CHANNELS 3 Zrotation Yrotation Xrotation
				JOINT RightToe
				{
					OFFSET -0.025372 -0.048144 0.123348
					CHANNELS 3 Zrotation Yrotation Xrotation
					End Site
					{
						OFFSET 0.000000 0.000000 0.000000
					}
				}
			}
		}
	}
	JOINT Spine
	{
		OFFSET -0.002533 0.108963 -0.026696
		CHANNELS 3 Zrotation Yrotation Xrotation
		JOINT Spine1
		{
			OFFSET 0.005487 0.135180 0.001092
			CHANNELS 3 Zrotation Yrotation Xrotation
			JOINT Spine2
			{
				OFFSET 0.001457 0.052922 0.025425
				CHANNELS 3 Zrotation Yrotation Xrotation
				JOINT Neck
				{
					OFFSET -0.002778 0.213870 -0.042857
					CHANNELS 3 Zrotation Yrotation Xrotation
					JOINT Head
					{
						OFFSET 0.005152 0.064970 0.051349
						CHANNELS 3 Zrotation Yrotation Xrotation
						End Site
						{
							OFFSET 0.000000 0.000000 0.000000
						}
					}
				}
				JOINT LeftShoulder
				{
					OFFSET 0.078845 0.121749 -0.034090
					CHANNELS 3 Zrotation Yrotation Xrotation
					JOINT LeftArm
					{
						OFFSET 0.090977 0.030469 -0.008868
						CHANNELS 3 Zrotation Yrotation Xrotation
						JOINT LeftForeArm
						{
							OFFSET 0.259612 -0.012772 -0.027456
							CHANNELS 3 Zrotation Yrotation Xrotation
							JOINT LeftHand
							{
								OFFSET 0.249234 0.008986 -0.001171
								CHANNELS 3 Zrotation Yrotation Xrotation
								End Site
								{
									OFFSET 0.000000 0.000000 0.000000
								}
							}
						}
					}
				}
				JOINT RightShoulder
				{
					OFFSET -0.081759 0.118833 -0.038615
					CHANNELS 3 Zrotation Yrotation Xrotation
					JOINT RightArm
					{
						OFFSET -0.096012 0.032551 -0.009143
						CHANNELS 3 Zrotation Yrotation Xrotation
						JOINT RightForeArm
						{
							OFFSET -0.253742 -0.013329 -0.021401
							CHANNELS 3 Zrotation Yrotation Xrotation
							JOINT RightHand
							{
								OFFSET -0.255298 0.007772 -0.005559
								CHANNELS 3 Zrotation Yrotation Xrotation
								End Site
								{
									OFFSET 0.000000 0.000000 0.000000
								}
							}
						}
					}
				}
			}
		}
	}
}
MOTION
Frames: 11
Frame Time: 0.050000
-1.753356 0.917012 0.508302 -158.400520 78.224171 -154.119466 8.803250 -6.156436 -25.489495 -10.969045 -4.448845 15.853330 31.547994 25.122596 18.674733 0.000000 0.000000 0.000000 12.643511 -10.915793 -41.884364 -16.686304 -8.467450 39.413034 4.516555 7.662983 4.967427 0.000000 0.000000 0.000000 -32.964658 -14.781352 51.719164 3.737838 0.974109 -10.183280 12.850970 24.080511 30.326134 -7.310466 4.591577 -1.158540 0.000000 0.000000 0.000000 -33.909549 -32.169718 -16.795700 -41.417088 -3.170304 5.173912 24.090078 -43.551659 -13.706119 0.000000 0.000000 0.000000 33.009261 19.078909 35.775031 31.803555 34.046682 -1.159680 -29.012633 42.245655 -10.999428 0.000000 0.000000 0.000000 
-1.777155 0.913813 0.518110 -155.131000 78.789950 -150.393130 10.661206 -7.093006 -27.542622 -12.238283 -4.578455 16.158947 31.652218 26.798554 21.051857 0.000000 0.000000 0.000000 11.814264 -10.438255 -40.795542 -23.090035 -9.757182 47.292832 7.240611 11.937412 0.921399 0.000000 0.000000 0.000000 -33.010865 -14.604921 51.848301 3.240645 1.128788 -10.223848 13.049579 24.472760 29.840604 -7.519088 4.535011 -0.719370 0.000000 0.000000 0.000000 -33.244275 -31.959956 -16.182969 -42.808724 -3.212870 4.951135 25.248627 -45.298445 -15.176389 0.000000 0.000000 0.000000 32.800958 19.155257 35.363220 32.286852 34.264239 -0.914063 -30.159815 43.001961 -11.522683 0.000000 0.000000 0.000000 
-1.801297 0.908946 0.528913 -155.018328 79.332421 -149.714588 11.795946 -7.979760 -29.559839 -13.173252 -4.714232 16.664611 32.546892 28.689905 23.231283 0.000000 0.000000 0.000000 10.661453 -10.054531 -39.469013 -28.828240 -10.169648 53.123549 9.542074 16.240104 -1.217077 0.000000 0.000000 0.000000 -34.145652 -14.468650 52.130015 2.722237 1.361265 -11.014570 13.974026 24.978335 30.226295 -7.149686 5.201003 -2.338855 0.000000 0.000000 0.000000 -32.402334 -32.083856 -15.934275 -44.841188 -3.144954 4.848558 27.876236 -46.135099 -17.375156 0.000000 0.000000 0.000000 32.223100 19.595919 35.298398 33.358030 35.003832 -0.435470 -33.030872 43.281636 -12.530672 0.000000 0.000000 0.000000 
-1.826455 0.902957 0.541413 -156.483772 80.140639 -150.538742 12.544778 -9.088723 -32.060535 -13.561890 -4.685473 16.819078 32.534052 30.239793 26.009921 0.000000 0.000000 0.000000 9.183521 -9.155152 -36.971349 -33.429722 -9.935707 55.806129 11.068163 19.192546 -2.341333 0.000000 0.000000 0.000000 -34.684802 -14.382840 52.738595 2.073222 1.661585 -11.795544 14.031561 25.411570 29.271206 -6.828884 4.809515 -1.860160 0.000000 0.000000 0.000000 -31.960002 -31.221455 -15.729910 -46.794825 -2.223912 4.100640 27.423595 -48.579766 -18.394848 0.000000 0.000000 0.000000 32.449221 19.633196 35.196273 33.609196 36.003369 -0.131116 -35.357496 43.645025 -13.515746 0.000000 0.000000 0.000000 
-1.852328 0.895843 0.556191 -161.047510 80.509099 -154.529469 13.013250 -9.727782 -33.398726 -13.264572 -4.377761 15.251209 31.983066 30.471112 26.083430 0.000000 0.000000 0.000000 7.964646 -8.534658 -34.955749 -33.221735 -10.340240 55.098655 11.765356 20.237950 -3.854865 0.000000 0.000000 0.000000 -34.977471 -14.434354 53.131752 1.338934 1.917541 -12.728067 14.881830 26.149570 29.327643 -6.035781 4.372355 -1.939392 0.000000 0.000000 0.000000 -32.143833 -31.350348 -16.127860 -48.119542 -0.451813 3.461388 26.866973 -51.506016 -19.463642 0.000000 0.000000 0.000000 31.573562 18.747934 34.250503 34.784362 37.244458 0.601254 -38.416596 45.808239 -15.101611 0.000000 0.000000 0.000000 
-1.878520 0.890518 0.573072 -163.976541 80.903475 -158.371798 12.916560 -9.993748 -33.924021 -12.782785 -4.186315 14.579127 30.639228 29.919615 26.982976 0.000000 0.000000 0.000000 8.044047 -7.046384 -32.382676 -30.323949 -11.101773 52.096441 11.731209 19.599405 -6.464037 0.000000 0.000000 0.000000 -36.798374 -14.638833 54.757149 0.623353 2.103138 -12.748210 15.040325 28.087989 28.694368 -4.674932 3.623075 -2.245823 0.000000 0.000000 0.000000 -31.600671 -30.339732 -16.245317 -51.034490 0.332675 2.670115 28.625900 -54.515249 -22.498319 0.000000 0.000000 0.000000 32.677310 19.083254 35.118164 34.565690 38.762014 0.784054 -41.678406 46.760244 -17.042013 0.000000 0.000000 0.000000 
-1.904536 0.887366 0.592047 -166.465525 81.143559 -161.938598 13.111242 -9.743315 -33.422511 -11.161710 -3.625192 12.622744 27.515751 27.625096 27.484436 0.000000 0.000000 0.000000 7.177635 -6.001795 -29.762750 -25.267317 -11.615052 47.529421 11.040719 16.990670 -8.682474 0.000000 0.000000 0.000000 -38.541669 -14.603007 55.759538 0.340897 2.206651 -13.080519 16.692507 29.947201 30.181222 -4.741199 3.527456 -1.793302 0.000000 0.000000 0.000000 -31.786264 -29.990625 -16.963414 -53.055032 2.808065 1.481103 25.319131 -58.461853 -22.430304 0.000000 0.000000 0.000000 32.250701 19.434021 35.120637 33.244278 40.043188 1.086159 -43.975913 48.550613 -19.016052 0.000000 0.000000 0.000000 
-1.930432 0.887151 0.612662 -164.513825 81.372588 -160.733601 14.199141 -9.373716 -32.565808 -8.962702 -2.902843 9.967895 23.312336 24.683724 27.692296 0.000000 0.000000 0.000000 7.724689 -5.125360 -28.588542 -21.506833 -11.559105 44.003356 10.014114 14.264813 -9.086888 0.000000 0.000000 0.000000 -38.723556 -14.552195 55.760011 -0.192969 2.301501 -12.478382 17.215890 31.366676 29.991599 -4.744341 3.255402 -1.588064 0.000000 0.000000 0.000000 -32.568093 -29.919539 -17.682815 -54.696915 4.358592 0.878001 24.609316 -60.075769 -22.923891 0.000000 0.000000 0.000000 33.116614 20.133290 36.384299 31.018272 41.131681 0.727204 -45.065641 47.782785 -19.720432 0.000000 0.000000 0.000000 
-1.955490 0.890171 0.632756 -161.878960 81.656811 -158.862165 15.993037 -9.338951 -32.289916 -7.655022 -2.468262 8.667249 22.898442 24.044465 29.613045 0.000000 0.000000 0.000000 9.018581 -4.778383 -29.069671 -20.501427 -11.026066 42.630328 9.110872 12.890792 -7.314926 0.000000 0.000000 0.000000 -38.902105 -14.524221 56.171427 -0.175844 2.344950 -13.033317 18.030790 31.870883 31.143045 -5.565100 3.668305 -1.049121 0.000000 0.000000 0.000000 -33.520289 -29.634461 -18.480053 -54.620952 6.892394 -0.007128 21.642797 -62.141550 -21.408135 0.000000 0.000000 0.000000 32.172913 21.328863 36.339668 29.014760 41.398956 0.768488 -45.640950 49.079452 -20.886411 0.000000 0.000000 0.000000 
-1.979046 0.894934 0.649741 -162.970388 81.655823 -160.222992 17.190596 -9.318685 -31.951145 -8.730728 -2.704692 9.499077 23.528050 24.395923 28.828223 0.000000 0.000000 0.000000 9.392862 -4.858656 -29.574711 -17.622570 -10.858040 40.437112 7.688690 10.381475 -5.972212 0.000000 0.000000 0.000000 -36.411251 -14.693637 55.609245 -0.993873 2.553367 -12.763382 16.657791 30.711222 30.268678 -4.943812 3.650690 -1.574718 0.000000 0.000000 0.000000 -34.667874 -30.584161 -17.999919 -53.957326 6.442634 0.634909 22.504029 -60.649277 -21.161372 0.000000 0.000000 0.000000 31.345049 21.788270 35.853620 29.206602 41.964966 1.176508 -43.541928 50.209787 -20.045181 0.000000 0.000000 0.000000 
-2.001059 0.900154 0.662911 -166.276802 81.911433 -163.923377 17.482398 -9.191362 -31.561038 -12.115891 -3.944387 15.890383 26.777879 27.063922 26.338553 0.000000 0.000000 0.000000 9.508617 -4.727499 -29.421721 -15.289628 -10.255531 37.726179 6.516587 8.511102 -3.391712 0.000000 0.000000 0.000000 -36.122989 -14.621541 55.411331 -0.958040 2.581825 -13.174451 16.295581 30.064301 30.397108 -5.319378 4.146144 -1.791444 0.000000 0.000000 0.000000 -34.197698 -30.736592 -17.466032 -54.438777 6.349179 0.370607 21.453438 -61.683497 -21.161521 0.000000 0.000000 0.000000 31.466452 22.506992 36.202591 27.890579 41.396914 0.759892 -41.490835 52.269839 -20.188336 0.000000 0.000000 0.000000 
